0
SECTION
2
HEADER
9
$INSUNITS
70
4
9
$ACADVER
1
AC1014
9
$HANDSEED
5
FFFF
0
ENDSEC
0
SECTION
2
TABLES
0
TABLE
2
VPORT
5
8
100
AcDbSymbolTable
0
ENDTAB
0
TABLE
2
LTYPE
5
5
100
AcDbSymbolTable
0
LTYPE
5
14
100
AcDbSymbolTableRecord
100
AcDbLinetypeTableRecord
2
BYBLOCK
70
0
0
LTYPE
5
15
100
AcDbSymbolTableRecord
100
AcDbLinetypeTableRecord
2
BYLAYER
70
0
0
ENDTAB
0
TABLE
2
LAYER
5
2
100
AcDbSymbolTable
70
2
0
LAYER
5
50
100
AcDbSymbolTableRecord
100
AcDbLayerTableRecord
2
0
70
0
6
CONTINUOUS
0
ENDTAB
0
TABLE
2
STYLE
5
3
100
AcDbSymbolTable
70
1
0
STYLE
5
11
100
AcDbSymbolTableRecord
100
AcDbTextStyleTableRecord
2
STANDARD
70
0
0
ENDTAB
0
TABLE
2
VIEW
5
6
100
AcDbSymbolTable
70
0
0
ENDTAB
0
TABLE
2
UCS
5
7
100
AcDbSymbolTable
70
0
0
ENDTAB
0
TABLE
2
APPID
5
9
100
AcDbSymbolTable
70
2
0
APPID
5
12
100
AcDbSymbolTableRecord
100
AcDbRegAppTableRecord
2
ACAD
70
0
0
ENDTAB
0
TABLE
2
DIMSTYLE
5
A
100
AcDbSymbolTable
70
1
0
ENDTAB
0
TABLE
2
BLOCK_RECORD
5
1
100
AcDbSymbolTable
70
1
0
BLOCK_RECORD
5
1F
100
AcDbSymbolTableRecord
100
AcDbBlockTableRecord
2
*MODEL_SPACE
0
BLOCK_RECORD
5
1B
100
AcDbSymbolTableRecord
100
AcDbBlockTableRecord
2
*PAPER_SPACE
0
ENDTAB
0
ENDSEC
0
SECTION
2
BLOCKS
0
BLOCK
5
20
100
AcDbEntity
100
AcDbBlockBegin
2
*MODEL_SPACE
0
ENDBLK
5
21
100
AcDbEntity
100
AcDbBlockEnd
0
BLOCK
5
1C
100
AcDbEntity
100
AcDbBlockBegin
2
*PAPER_SPACE
0
ENDBLK
5
1D
100
AcDbEntity
100
AcDbBlockEnd
0
ENDSEC
0
SECTION
2
ENTITIES
0
CIRCLE
5
100
100
AcDbEntity
8
0
100
AcDbCircle
10
173.20622057837221
20
-125.2750926702472
30
0
40
3.3500000000000081
210
5.8157905554282882e-65
220
6.1629758220391561e-33
230
1
0
LWPOLYLINE
5
101
100
AcDbEntity
8
0
100
AcDbPolyline
90
4
70
1
43
0.0
10
52.328498087097159
20
98.958849934476675
10
88.328498087097159
20
98.958849934476675
10
88.328498087097159
20
95.565929868599596
10
52.328498087097159
20
95.565929868599596
0
LWPOLYLINE
5
102
100
AcDbEntity
8
0
100
AcDbPolyline
90
4
70
1
43
0.0
10
88.328498087097188
20
-101.82699019727778
10
52.328498087097195
20
-101.82699019727778
10
52.328498087097195
20
-98.434070131401157
10
88.328498087097188
20
-98.434070131401157
0
LWPOLYLINE
5
103
100
AcDbEntity
8
0
100
AcDbPolyline
90
4
70
1
43
0.0
10
97.328498087097174
20
-98.434070131401157
10
133.32849808709722
20
-98.434070131401157
10
133.32849808709722
20
-101.82699019727778
10
97.328498087097174
20
-101.82699019727778
0
LWPOLYLINE
5
104
100
AcDbEntity
8
0
100
AcDbPolyline
90
4
70
1
43
0.0
10
-127.67150191290287
20
98.958849934476675
10
-91.671501912902897
20
98.958849934476675
10
-91.671501912902897
20
95.565929868599596
10
-127.67150191290287
20
95.565929868599596
0
LWPOLYLINE
5
105
100
AcDbEntity
8
0
100
AcDbPolyline
90
4
70
1
43
0.0
10
-37.671501912902841
20
-98.434070131401157
10
-1.6715019129028263
20
-98.434070131401157
10
-1.6715019129028268
20
-101.82699019727778
10
-37.671501912902841
20
-101.82699019727778
0
CIRCLE
5
106
100
AcDbEntity
8
0
100
AcDbCircle
10
173.20622057837213
20
122.40695240744601
30
0
40
3.3500000000000081
210
5.8157905554282882e-65
220
6.1629758220391561e-33
230
1
0
LWPOLYLINE
5
107
100
AcDbEntity
8
0
100
AcDbPolyline
90
4
70
1
43
0.0
10
142.32849808709719
20
98.958849934476675
10
169.3284980870973
20
98.958849934476575
10
169.3284980870973
20
95.565929868599596
10
142.32849808709719
20
95.565929868599596
0
LWPOLYLINE
5
108
100
AcDbEntity
8
0
100
AcDbPolyline
90
4
70
1
43
0.0
10
-82.671501912902841
20
-98.434070131401157
10
-46.671501912902826
20
-98.434070131401157
10
-46.671501912902826
20
-101.82699019727778
10
-82.671501912902841
20
-101.82699019727778
0
LWPOLYLINE
5
109
100
AcDbEntity
8
0
100
AcDbPolyline
90
4
70
1
43
0.0
10
-136.67150191290287
20
-101.82699019727778
10
-172.67150191290284
20
-101.82699019727778
10
-172.67150191290284
20
-98.434070131401157
10
-136.67150191290287
20
-98.434070131401157
0
CIRCLE
5
110
100
AcDbEntity
8
0
100
AcDbCircle
10
-176.79377942164365
20
122.4069524074462
30
0
40
3.3500000000000081
210
5.8157905554282882e-65
220
6.1629758220391561e-33
230
1
0
CIRCLE
5
111
100
AcDbEntity
8
0
100
AcDbCircle
10
-176.79377942164351
20
-125.27509267024732
30
0
40
3.3500000000000081
210
5.8157905554282882e-65
220
6.1629758220391561e-33
230
1
0
LWPOLYLINE
5
112
100
AcDbEntity
8
0
100
AcDbPolyline
90
4
70
1
43
0.0
10
43.328498087097209
20
-101.82699019727778
10
7.3284980870971594
20
-101.82699019727778
10
7.328498087097195
20
-98.434070131401157
10
43.328498087097209
20
-98.434070131401157
0
LWPOLYLINE
5
113
100
AcDbEntity
8
0
100
AcDbPolyline
90
4
70
1
43
0.0
10
7.3284980870971594
20
98.958849934476675
10
43.328498087097174
20
98.958849934476675
10
43.328498087097174
20
95.565929868599596
10
7.3284980870971594
20
95.565929868599596
0
LWPOLYLINE
5
114
100
AcDbEntity
8
0
100
AcDbPolyline
90
4
70
1
43
0.0
10
-172.6715019129029
20
98.958849934476675
10
-136.6715019129029
20
98.958849934476675
10
-136.6715019129029
20
95.565929868599596
10
-172.6715019129029
20
95.565929868599596
0
LWPOLYLINE
5
115
100
AcDbEntity
8
0
100
AcDbPolyline
90
4
70
1
43
0.0
10
-127.67150191290287
20
-98.434070131401157
10
-91.671501912902826
20
-98.434070131401157
10
-91.671501912902826
20
-101.82699019727778
10
-127.67150191290287
20
-101.82699019727778
0
LWPOLYLINE
5
116
100
AcDbEntity
8
0
100
AcDbPolyline
90
4
70
1
43
0.0
10
169.3284980870973
20
-101.82699019727778
10
142.32849808709719
20
-101.82699019727778
10
142.32849808709719
20
-98.434070131401157
10
169.3284980870973
20
-98.434070131401171
0
LWPOLYLINE
5
117
100
AcDbEntity
8
0
100
AcDbPolyline
90
4
70
1
43
0.0
10
-82.671501912902841
20
98.958849934476675
10
-46.671501912902862
20
98.958849934476675
10
-46.671501912902862
20
95.565929868599596
10
-82.671501912902841
20
95.565929868599596
0
LWPOLYLINE
5
118
100
AcDbEntity
8
0
100
AcDbPolyline
90
4
70
1
43
0.0
10
-37.671501912902841
20
98.958849934476675
10
-1.6715019129028263
20
98.958849934476675
10
-1.6715019129028268
20
95.565929868599596
10
-37.671501912902841
20
95.565929868599596
0
LWPOLYLINE
5
119
100
AcDbEntity
8
0
100
AcDbPolyline
90
4
70
1
43
0.0
10
97.328498087097174
20
98.958849934476675
10
133.32849808709716
20
98.958849934476675
10
133.32849808709716
20
95.565929868599596
10
97.328498087097174
20
95.565929868599596
0
LWPOLYLINE
5
120
100
AcDbEntity
8
0
100
AcDbPolyline
90
16
70
1
43
0.0
10
178.32849808709727
20
-101.82699019727777
10
178.32849808709722
20
98.958849934476575
42
0.33167926656827451
10
183.32849808709716
20
105.66705386697595
10
183.32849808709909
20
121.95884993468616
42
0.41421356237309503
10
170.82849808709716
20
134.45884993468806
10
-174.1715019129029
20
134.45884993468621
42
0.4142135623730967
10
-186.67150191290293
20
121.95884993468626
10
-186.6715019129029
20
105.66705386697605
42
0.33167926656828156
10
-181.67150191290284
20
98.958849934476675
10
-181.67150191290284
20
-101.82699019727779
42
0.33167926656827978
10
-186.67150191290287
20
-108.5351941297772
10
-186.67150191290276
20
-124.82699019748736
42
0.41421356237309587
10
-174.17150191290284
20
-137.32699019748736
10
170.82849808709724
20
-137.32699019748924
42
0.41421356237309503
10
183.32849808709915
20
-124.82699019748735
10
183.32849808709724
20
-108.53519412977717
42
0.33167926656827518
0
ENDSEC
0
SECTION
2
OBJECTS
0
DICTIONARY
5
C
100
AcDbDictionary
3
ACAD_GROUP
350
D
3
ACAD_MLINESTYLE
350
17
0
DICTIONARY
5
D
100
AcDbDictionary
0
DICTIONARY
5
1A
330
C
100
AcDbDictionary
0
DICTIONARY
5
17
100
AcDbDictionary
0
ENDSEC
0
EOF
