0
SECTION
2
HEADER
9
$INSUNITS
70
4
9
$ACADVER
1
AC1014
9
$HANDSEED
5
FFFF
0
ENDSEC
0
SECTION
2
TABLES
0
TABLE
2
VPORT
5
8
100
AcDbSymbolTable
0
ENDTAB
0
TABLE
2
LTYPE
5
5
100
AcDbSymbolTable
0
LTYPE
5
14
100
AcDbSymbolTableRecord
100
AcDbLinetypeTableRecord
2
BYBLOCK
70
0
0
LTYPE
5
15
100
AcDbSymbolTableRecord
100
AcDbLinetypeTableRecord
2
BYLAYER
70
0
0
ENDTAB
0
TABLE
2
LAYER
5
2
100
AcDbSymbolTable
70
2
0
LAYER
5
50
100
AcDbSymbolTableRecord
100
AcDbLayerTableRecord
2
0
70
0
6
CONTINUOUS
0
ENDTAB
0
TABLE
2
STYLE
5
3
100
AcDbSymbolTable
70
1
0
STYLE
5
11
100
AcDbSymbolTableRecord
100
AcDbTextStyleTableRecord
2
STANDARD
70
0
0
ENDTAB
0
TABLE
2
VIEW
5
6
100
AcDbSymbolTable
70
0
0
ENDTAB
0
TABLE
2
UCS
5
7
100
AcDbSymbolTable
70
0
0
ENDTAB
0
TABLE
2
APPID
5
9
100
AcDbSymbolTable
70
2
0
APPID
5
12
100
AcDbSymbolTableRecord
100
AcDbRegAppTableRecord
2
ACAD
70
0
0
ENDTAB
0
TABLE
2
DIMSTYLE
5
A
100
AcDbSymbolTable
70
1
0
ENDTAB
0
TABLE
2
BLOCK_RECORD
5
1
100
AcDbSymbolTable
70
1
0
BLOCK_RECORD
5
1F
100
AcDbSymbolTableRecord
100
AcDbBlockTableRecord
2
*MODEL_SPACE
0
BLOCK_RECORD
5
1B
100
AcDbSymbolTableRecord
100
AcDbBlockTableRecord
2
*PAPER_SPACE
0
ENDTAB
0
ENDSEC
0
SECTION
2
BLOCKS
0
BLOCK
5
20
100
AcDbEntity
100
AcDbBlockBegin
2
*MODEL_SPACE
0
ENDBLK
5
21
100
AcDbEntity
100
AcDbBlockEnd
0
BLOCK
5
1C
100
AcDbEntity
100
AcDbBlockBegin
2
*PAPER_SPACE
0
ENDBLK
5
1D
100
AcDbEntity
100
AcDbBlockEnd
0
ENDSEC
0
SECTION
2
ENTITIES
0
ARC
5
100
100
AcDbEntity
8
0
100
AcDbCircle
10
17.292274857486753
20
-92.671892118638581
30
1.22947176664241e-47
40
5.500000000000032
210
-9.4721833849762395e-49
220
-1.7531911561265231e-34
230
1
100
AcDbArc
50
180
51
269.99999999999972
0
LINE
5
101
100
AcDbEntity
8
0
100
AcDbLine
10
17.292274857486728
20
-98.17189211863861
30
-9.6425513586958108e-34
11
142.95513356258385
21
-98.17189211863861
31
0
0
ARC
5
102
100
AcDbEntity
8
0
100
AcDbCircle
10
142.95513356258388
20
-76.421892118638738
30
0
40
21.749999999999872
210
0
220
0
230
1
100
AcDbArc
50
269.99999999999989
51
304.14842434494489
0
LINE
5
103
100
AcDbEntity
8
0
100
AcDbLine
10
155.16424900965791
20
-94.421892118639079
30
0
11
156.66424900965791
21
-94.421892118639079
31
0
0
LINE
5
104
100
AcDbEntity
8
0
100
AcDbLine
10
156.66424900965791
20
-94.421892118639079
30
0
11
156.66424900965791
21
-95.171892118639079
31
0
0
LINE
5
105
100
AcDbEntity
8
0
100
AcDbLine
10
161.30504168903508
20
-95.171892118639079
30
-1.4667882456453188e-29
11
168.98539787283354
21
-95.171892118639079
31
0
0
LINE
5
106
100
AcDbEntity
8
0
100
AcDbLine
10
176.98539787283354
20
-95.171892118639079
30
0
11
181.28659058276457
21
-95.171892118639079
31
0
0
LINE
5
107
100
AcDbEntity
8
0
100
AcDbLine
10
183.32849800965792
20
-95.171892118639079
30
-4.3140830754274083e-31
11
183.32849800965789
21
92.374855134673339
31
-9.78362090439308e-31
0
LINE
5
108
100
AcDbEntity
8
0
100
AcDbLine
10
181.28659058276457
20
92.374855134673354
30
3.3588218230113393e-30
11
176.98539787283354
21
92.374855134673354
31
0
0
LINE
5
109
100
AcDbEntity
8
0
100
AcDbLine
10
168.98539787283354
20
92.374855134673354
30
0
11
161.30504168903508
21
92.374855134673354
31
0
0
LINE
5
110
100
AcDbEntity
8
0
100
AcDbLine
10
156.66424900965791
20
92.374855134673354
30
1.3188768259163791e-29
11
156.66424900965791
21
91.624855134673396
31
0
0
LINE
5
111
100
AcDbEntity
8
0
100
AcDbLine
10
156.66424900965791
20
91.624855134673396
30
0
11
155.16424900965791
21
91.624855134673396
31
0
0
ARC
5
112
100
AcDbEntity
8
0
100
AcDbCircle
10
142.95513356258388
20
73.624855134673084
30
-1.8405726899578896e-45
40
21.749999999999837
210
-8.4420310903561001e-33
220
5.7260962327745624e-33
230
1
100
AcDbArc
50
55.851575655055065
51
90.000000000000142
0
LINE
5
113
100
AcDbEntity
8
0
100
AcDbLine
10
142.95513356258382
20
95.374855134672899
30
0
11
17.292274857486731
21
95.374855134672899
31
0
0
ARC
5
114
100
AcDbEntity
8
0
100
AcDbCircle
10
17.292274857486742
20
89.874855134672899
30
0
40
5.5000000000000071
210
0
220
0
230
1
100
AcDbArc
50
90.000000000000114
51
180
0
LINE
5
115
100
AcDbEntity
8
0
100
AcDbLine
10
11.792274857486735
20
89.874855134672899
30
0
11
11.792274857486721
21
84.207955122764474
31
0
0
ARC
5
116
100
AcDbEntity
8
0
100
AcDbCircle
10
6.2922748574867224
20
84.207955122764474
30
0
40
5.4999999999999982
210
2.8495060208714004e-49
220
-2.8232675358330167e-33
230
1
100
AcDbArc
50
-90
51
0
0
LINE
5
117
100
AcDbEntity
8
0
100
AcDbLine
10
6.2922748574867216
20
78.707955122764474
30
-1.5527971447081586e-32
11
4.7922748574862641
21
78.70795512276446
31
1.0785207688568521e-31
0
LINE
5
118
100
AcDbEntity
8
0
100
AcDbLine
10
4.7922748574862641
20
73.70795512276446
30
0
11
4.7922748574862641
21
66.841735461280706
31
0
0
LINE
5
119
100
AcDbEntity
8
0
100
AcDbLine
10
4.7922748574862641
20
64.841735461280706
30
0
11
4.7922748574862641
21
57.975515799796952
31
0
0
LINE
5
120
100
AcDbEntity
8
0
100
AcDbLine
10
4.7922748574862641
20
52.975515799796952
30
0
11
6.2922748574867224
21
52.975515799796952
31
-1.0785207688568521e-31
0
ARC
5
121
100
AcDbEntity
8
0
100
AcDbCircle
10
6.2922748574867224
20
47.475515799796938
30
0
40
5.5000000000000018
210
0
220
-0
230
1
100
AcDbArc
50
0
51
90
0
LINE
5
122
100
AcDbEntity
8
0
100
AcDbLine
10
11.792274857486724
20
47.475515799796938
30
0
11
11.792274857486721
21
-50.272552783762677
31
0
0
ARC
5
123
100
AcDbEntity
8
0
100
AcDbCircle
10
6.2922748574867224
20
-50.272552783762677
30
0
40
5.4999999999999982
210
2.8495060208714004e-49
220
-2.8232675358330167e-33
230
1
100
AcDbArc
50
-90
51
0
0
LINE
5
124
100
AcDbEntity
8
0
100
AcDbLine
10
6.2922748574867216
20
-55.772552783762677
30
-1.5527971447081586e-32
11
4.7922748574862615
21
-55.772552783762691
31
-7.7037197775489434e-32
0
LINE
5
125
100
AcDbEntity
8
0
100
AcDbLine
10
4.792274857486273
20
-60.772552783762691
30
0
11
4.792274857486273
21
-67.638772445246445
31
0
0
LINE
5
126
100
AcDbEntity
8
0
100
AcDbLine
10
4.792274857486273
20
-69.638772445246445
30
0
11
4.792274857486273
21
-76.504992106730199
31
0
0
LINE
5
127
100
AcDbEntity
8
0
100
AcDbLine
10
4.7922748574862615
20
-81.504992106730299
30
0
11
6.2922748574867224
21
-81.504992106730299
31
7.7037197775489434e-32
0
ARC
5
128
100
AcDbEntity
8
0
100
AcDbCircle
10
6.2922748574867224
20
-87.004992106730299
30
0
40
5.5000000000000018
210
0
220
-0
230
1
100
AcDbArc
50
0
51
90
0
LINE
5
129
100
AcDbEntity
8
0
100
AcDbLine
10
11.792274857486724
20
-87.004992106730299
30
0
11
11.792274857486722
21
-92.671892118638624
31
8.5643060276437558e-49
0
ARC
5
130
100
AcDbEntity
8
0
100
AcDbCircle
10
-24.600645208390858
20
58.475515799796952
30
-2.4632199568209675e-45
40
5.4999999999999982
210
2.4651903288156671e-31
220
4.1501576312374599e-46
230
1
100
AcDbArc
50
180
51
270.00000000000011
0
LINE
5
131
100
AcDbEntity
8
0
100
AcDbLine
10
-24.600645208390851
20
52.975515799796959
30
-1.3018519726689961e-45
11
1.3993547916096061
21
52.975515799796952
31
4.1908235589866252e-30
0
LINE
5
132
100
AcDbEntity
8
0
100
AcDbLine
10
1.3993547916096072
20
57.975515799796952
30
-3.2467316278787349e-45
11
1.3993547916096072
21
64.841735461280706
31
0
0
LINE
5
133
100
AcDbEntity
8
0
100
AcDbLine
10
1.3993547916096072
20
66.841735461280706
30
0
11
1.3993547916096072
21
73.70795512276446
31
0
0
LINE
5
134
100
AcDbEntity
8
0
100
AcDbLine
10
1.3993547916096072
20
78.70795512276446
30
3.3080622837837705e-45
11
-24.600645208390851
21
78.70795512276446
31
-4.1908235589866252e-30
0
ARC
5
135
100
AcDbEntity
8
0
100
AcDbCircle
10
-24.600645208390851
20
73.207955122764488
30
-1.5326701953552687e-45
40
5.4999999999999716
210
2.4651903288156645e-31
220
7.6196791981575365e-31
230
1
100
AcDbArc
50
90
51
180
0
LINE
5
136
100
AcDbEntity
8
0
100
AcDbLine
10
-30.100645208390851
20
73.207955122764488
30
1.3558546808486137e-30
11
-30.100645208390855
21
58.475515799796952
31
1.355854680848614e-30
0
ARC
5
137
100
AcDbEntity
8
0
100
AcDbCircle
10
-24.600645208390844
20
-61.272552783762691
30
-1.5326701953552687e-45
40
5.4999999999999982
210
2.4651903288156645e-31
220
-2.7867439821853991e-46
230
1
100
AcDbArc
50
90
51
180
0
LINE
5
138
100
AcDbEntity
8
0
100
AcDbLine
10
-30.100645208390841
20
-61.272552783762691
30
1.3558546808486137e-30
11
-30.100645208390841
21
-76.004992106730299
31
0
0
ARC
5
139
100
AcDbEntity
8
0
100
AcDbCircle
10
-24.600645208390834
20
-76.004992106730299
30
-4.4337959222777415e-45
40
5.5000000000000071
210
8.061447131414065e-46
220
2.8395815371624708e-46
230
1
100
AcDbArc
50
180
51
269.99999999999989
0
LINE
5
140
100
AcDbEntity
8
0
100
AcDbLine
10
-24.600645208390844
20
-81.504992106730313
30
-6.8158240347436734e-46
11
1.399354791609615
21
-81.504992106730299
31
4.1908235589866252e-30
0
LINE
5
141
100
AcDbEntity
8
0
100
AcDbLine
10
1.3993547916096161
20
-76.504992106730199
30
-3.2467316278787349e-45
11
1.3993547916096154
21
-69.638772445246445
31
0
0
LINE
5
142
100
AcDbEntity
8
0
100
AcDbLine
10
1.3993547916096154
20
-67.638772445246445
30
0
11
1.3993547916096158
21
-60.772552783762691
31
0
0
LINE
5
143
100
AcDbEntity
8
0
100
AcDbLine
10
1.3993547916096161
20
-55.772552783762691
30
2.3050893386658227e-32
11
-24.600645208390844
21
-55.772552783762698
31
3.8994846700333155e-50
0
LINE
5
144
100
AcDbEntity
8
0
100
AcDbLine
10
1.3993547916096158
20
-60.772552783762691
30
0
11
4.792274857486273
21
-60.772552783762691
31
0
0
LINE
5
145
100
AcDbEntity
8
0
100
AcDbLine
10
4.7922748574862615
20
-55.772552783762691
30
0
11
1.3993547916096161
21
-55.772552783762691
31
4.4373425918681914e-30
0
LINE
5
146
100
AcDbEntity
8
0
100
AcDbLine
10
1.3993547916096154
20
-69.638772445246445
30
0
11
4.792274857486273
21
-69.638772445246445
31
0
0
LINE
5
147
100
AcDbEntity
8
0
100
AcDbLine
10
1.3993547916096154
20
-69.638772445246445
30
0
11
4.792274857486273
21
-69.638772445246445
31
0
0
LINE
5
148
100
AcDbEntity
8
0
100
AcDbLine
10
4.792274857486273
20
-67.638772445246445
30
0
11
1.3993547916096154
21
-67.638772445246445
31
0
0
LINE
5
149
100
AcDbEntity
8
0
100
AcDbLine
10
4.792274857486273
20
-76.504992106730199
30
0
11
1.3993547916096161
21
-76.504992106730199
31
0
0
LINE
5
150
100
AcDbEntity
8
0
100
AcDbLine
10
1.3993547916096161
20
-81.504992106730299
30
3.2467316278787349e-45
11
4.7922748574862615
21
-81.504992106730299
31
-4.4373425918681914e-30
0
LINE
5
151
100
AcDbEntity
8
0
100
AcDbLine
10
1.3993547916096072
20
73.70795512276446
30
0
11
4.7922748574862641
21
73.70795512276446
31
0
0
LINE
5
152
100
AcDbEntity
8
0
100
AcDbLine
10
4.7922748574862641
20
78.70795512276446
30
0
11
1.3993547916096072
21
78.70795512276446
31
3.5128962185623182e-30
0
LINE
5
153
100
AcDbEntity
8
0
100
AcDbLine
10
4.7922748574862641
20
66.841735461280706
30
0
11
1.3993547916096072
21
66.841735461280706
31
0
0
LINE
5
154
100
AcDbEntity
8
0
100
AcDbLine
10
1.3993547916096072
20
64.841735461280706
30
0
11
4.7922748574862641
21
64.841735461280706
31
0
0
LINE
5
155
100
AcDbEntity
8
0
100
AcDbLine
10
4.7922748574862641
20
57.975515799796952
30
0
11
1.3993547916096072
21
57.975515799796952
31
0
0
LINE
5
156
100
AcDbEntity
8
0
100
AcDbLine
10
1.3993547916096072
20
52.975515799796952
30
3.2467316278787349e-45
11
4.7922748574862641
21
52.975515799796952
31
-3.5128962185623182e-30
0
LINE
5
157
100
AcDbEntity
8
0
100
AcDbLine
10
161.30504168903508
20
-98.564812184515745
30
0
11
161.30504168903508
21
-95.171892118639079
31
0
0
LINE
5
158
100
AcDbEntity
8
0
100
AcDbLine
10
156.66424900965791
20
-95.171892118639079
30
1.4667882456453188e-29
11
156.66424900965794
21
-98.564812184515759
31
4.89181045219654e-31
0
LINE
5
159
100
AcDbEntity
8
0
100
AcDbLine
10
176.98539787283354
20
-98.564812184515745
30
0
11
176.98539787283354
21
-95.171892118639079
31
0
0
LINE
5
160
100
AcDbEntity
8
0
100
AcDbLine
10
168.98539787283354
20
-95.171892118639079
30
0
11
168.98539787283354
21
-98.564812184515745
31
0
0
LINE
5
161
100
AcDbEntity
8
0
100
AcDbLine
10
181.28659058276457
20
-95.171892118639079
30
0
11
181.28659058276457
21
-98.564812184515745
31
0
0
LINE
5
162
100
AcDbEntity
8
0
100
AcDbLine
10
183.32849800965792
20
-98.564812184515759
30
-4.3140830754274083e-31
11
183.32849800965792
21
-95.171892118639079
31
-6.1235700475064393e-47
0
LWPOLYLINE
5
163
100
AcDbEntity
8
0
100
AcDbPolyline
90
3
70
1
43
0.0
10
172.98539787283502
20
-100.59298126846579
10
176.02158125129588
20
-105.30115352091123
42
-1.7631220453384082
10
170.27453458112473
20
-105.49568620352974
0
ARC
5
164
100
AcDbEntity
8
0
100
AcDbCircle
10
170.32849800965795
20
-103.56481218451623
30
-6.1580498920524188e-47
40
12.999999999999972
210
7.8195121983763558e-48
220
-7.0925825805092203e-33
230
1
100
AcDbArc
50
-90.000000000000099
51
0
0
LINE
5
165
100
AcDbEntity
8
0
100
AcDbLine
10
183.32849800965792
20
-103.5648121845162
30
9.097350194280071e-47
11
183.32849800965792
21
-98.564812184515759
31
0
0
LINE
5
166
100
AcDbEntity
8
0
100
AcDbLine
10
181.28659058276457
20
-98.564812184515745
30
4.3140830754274083e-31
11
176.98539787283354
21
-98.564812184515745
31
0
0
LINE
5
167
100
AcDbEntity
8
0
100
AcDbLine
10
168.98539787283354
20
-98.564812184515745
30
0
11
161.30504168903508
21
-98.564812184515745
31
0
0
LINE
5
168
100
AcDbEntity
8
0
100
AcDbLine
10
156.66424900965794
20
-98.564812184515759
30
1.6146996653742585e-29
11
156.66424900965794
21
-103.5648121845162
31
0
0
ARC
5
169
100
AcDbEntity
8
0
100
AcDbCircle
10
169.66424900965791
20
-103.56481218451621
30
1.0400262039910752e-45
40
12.999999999999972
210
-3.1544486553549545e-47
220
3.5462912902546127e-32
230
1
100
AcDbArc
50
180
51
270.00000000000023
0
LINE
5
170
100
AcDbEntity
8
0
100
AcDbLine
10
169.66424900965796
20
-116.56481218451619
30
4.6101786773309966e-31
11
170.32849800965792
21
-116.5648121845162
31
-9.2203573546619714e-32
0
ARC
5
171
100
AcDbEntity
8
0
100
AcDbCircle
10
170.32849800965792
20
100.76777520055049
30
1.3684555315672042e-46
40
13.000000000000007
210
3.9601098494898386e-47
220
2.1277747741527657e-32
230
1
100
AcDbArc
50
0
51
90
0
LINE
5
172
100
AcDbEntity
8
0
100
AcDbLine
10
170.32849800965792
20
113.7677752005505
30
-2.7661072063985955e-31
11
169.66424900965788
21
113.76777520055049
31
0
0
ARC
5
173
100
AcDbEntity
8
0
100
AcDbCircle
10
169.66424900965788
20
100.76777520055047
30
-4.1053665947016125e-47
40
13.000000000000007
210
6.8420731735793308e-48
220
-3.1579743036166235e-48
230
1
100
AcDbArc
50
90
51
180
0
LINE
5
174
100
AcDbEntity
8
0
100
AcDbLine
10
156.66424900965785
20
100.76777520055047
30
5.3539125870206016e-47
11
156.66424900965791
21
95.76777520055002
31
0
0
LINE
5
175
100
AcDbEntity
8
0
100
AcDbLine
10
161.30504168903508
20
95.76777520055002
30
-1.3188768259163791e-29
11
168.98539787283354
21
95.76777520055002
31
0
0
LINE
5
176
100
AcDbEntity
8
0
100
AcDbLine
10
176.98539787283354
20
95.76777520055002
30
0
11
181.28659058276457
21
95.76777520055002
31
0
0
LINE
5
177
100
AcDbEntity
8
0
100
AcDbLine
10
183.32849800965789
20
95.76777520055002
30
-3.3588218230113393e-30
11
183.32849800965792
21
100.76777520055047
31
0
0
LWPOLYLINE
5
178
100
AcDbEntity
8
0
100
AcDbPolyline
90
3
70
1
43
0.0
10
176.02158125129614
20
102.5041165369453
10
172.98539787283499
20
97.795944284500052
10
170.27453458112439
20
102.69864921956385
42
-1.7631220453382412
0
LINE
5
179
100
AcDbEntity
8
0
100
AcDbLine
10
161.30504168903508
20
92.374855134673354
30
0
11
161.30504168903508
21
95.76777520055002
31
0
0
LINE
5
180
100
AcDbEntity
8
0
100
AcDbLine
10
156.66424900965791
20
95.76777520055002
30
1.3188768259163791e-29
11
156.66424900965791
21
92.374855134673354
31
1.8375521284258786e-46
0
LINE
5
181
100
AcDbEntity
8
0
100
AcDbLine
10
176.98539787283354
20
92.374855134673354
30
0
11
176.98539787283354
21
95.76777520055002
31
0
0
LINE
5
182
100
AcDbEntity
8
0
100
AcDbLine
10
168.98539787283354
20
95.76777520055002
30
0
11
168.98539787283354
21
92.374855134673354
31
0
0
LINE
5
183
100
AcDbEntity
8
0
100
AcDbLine
10
181.28659058276457
20
95.76777520055002
30
0
11
181.28659058276457
21
92.374855134673354
31
0
0
LINE
5
184
100
AcDbEntity
8
0
100
AcDbLine
10
183.32849800965789
20
92.374855134673354
30
-3.3588218230113393e-30
11
183.32849800965789
21
95.76777520055002
31
-1.2249545665882613e-46
0
ENDSEC
0
SECTION
2
OBJECTS
0
DICTIONARY
5
C
100
AcDbDictionary
3
ACAD_GROUP
350
D
3
ACAD_MLINESTYLE
350
17
0
DICTIONARY
5
D
100
AcDbDictionary
0
DICTIONARY
5
1A
330
C
100
AcDbDictionary
0
DICTIONARY
5
17
100
AcDbDictionary
0
ENDSEC
0
EOF
