0
SECTION
2
HEADER
9
$INSUNITS
70
4
9
$ACADVER
1
AC1014
9
$HANDSEED
5
FFFF
0
ENDSEC
0
SECTION
2
TABLES
0
TABLE
2
VPORT
5
8
100
AcDbSymbolTable
0
ENDTAB
0
TABLE
2
LTYPE
5
5
100
AcDbSymbolTable
0
LTYPE
5
14
100
AcDbSymbolTableRecord
100
AcDbLinetypeTableRecord
2
BYBLOCK
70
0
0
LTYPE
5
15
100
AcDbSymbolTableRecord
100
AcDbLinetypeTableRecord
2
BYLAYER
70
0
0
ENDTAB
0
TABLE
2
LAYER
5
2
100
AcDbSymbolTable
70
2
0
LAYER
5
50
100
AcDbSymbolTableRecord
100
AcDbLayerTableRecord
2
0
70
0
6
CONTINUOUS
0
ENDTAB
0
TABLE
2
STYLE
5
3
100
AcDbSymbolTable
70
1
0
STYLE
5
11
100
AcDbSymbolTableRecord
100
AcDbTextStyleTableRecord
2
STANDARD
70
0
0
ENDTAB
0
TABLE
2
VIEW
5
6
100
AcDbSymbolTable
70
0
0
ENDTAB
0
TABLE
2
UCS
5
7
100
AcDbSymbolTable
70
0
0
ENDTAB
0
TABLE
2
APPID
5
9
100
AcDbSymbolTable
70
2
0
APPID
5
12
100
AcDbSymbolTableRecord
100
AcDbRegAppTableRecord
2
ACAD
70
0
0
ENDTAB
0
TABLE
2
DIMSTYLE
5
A
100
AcDbSymbolTable
70
1
0
ENDTAB
0
TABLE
2
BLOCK_RECORD
5
1
100
AcDbSymbolTable
70
1
0
BLOCK_RECORD
5
1F
100
AcDbSymbolTableRecord
100
AcDbBlockTableRecord
2
*MODEL_SPACE
0
BLOCK_RECORD
5
1B
100
AcDbSymbolTableRecord
100
AcDbBlockTableRecord
2
*PAPER_SPACE
0
ENDTAB
0
ENDSEC
0
SECTION
2
BLOCKS
0
BLOCK
5
20
100
AcDbEntity
100
AcDbBlockBegin
2
*MODEL_SPACE
0
ENDBLK
5
21
100
AcDbEntity
100
AcDbBlockEnd
0
BLOCK
5
1C
100
AcDbEntity
100
AcDbBlockBegin
2
*PAPER_SPACE
0
ENDBLK
5
1D
100
AcDbEntity
100
AcDbBlockEnd
0
ENDSEC
0
SECTION
2
ENTITIES
0
LWPOLYLINE
5
100
100
AcDbEntity
8
OUTER_PROFILES
100
AcDbPolyline
90
34
70
1
43
0.0
10
-13
20
13.66424899999998
42
-0.41421356237309503
10
-5.5511151231257827e-15
20
26.664248999999984
10
9.1429200658771101
20
26.664249000000009
10
9.1429200658771066
20
28.164249000000012
42
-0.1501131539653289
10
5.3929200658775889
20
40.373364447074081
10
5.3929200658775773
20
166.0362231521712
42
-0.41421356237309492
10
10.892920065877576
20
171.5362231521712
10
16.559820077785886
20
171.5362231521712
42
0.41421356237309559
10
22.059820077785904
20
177.0362231521712
10
22.05982007778589
20
207.92914321804875
42
-0.41421356237309531
10
27.559820077785897
20
213.42914321804875
10
42.292259400753494
20
213.42914321804875
42
-0.41421356237309553
10
47.792259400753508
20
207.92914321804875
10
47.792259400753522
20
177.03622315217117
42
0.41421356237309415
10
53.292259400753537
20
171.5362231521712
10
151.04032798431314
20
171.5362231521712
42
0.41421356237309415
10
156.54032798431314
20
177.03622315217117
10
156.54032798431314
20
207.92914321804884
42
-0.41421356237309503
10
162.04032798431317
20
213.42914321804881
10
176.77276730728067
20
213.42914321804881
42
-0.41421356237309503
10
182.27276730728065
20
207.92914321804881
10
182.27276730728065
20
177.0362231521712
42
0.41421356237309503
10
187.77276730728065
20
171.5362231521712
10
193.43966731918908
20
171.5362231521712
42
-0.41421356237309503
10
198.93966731918908
20
166.0362231521712
10
198.93966731918908
20
40.373364447074103
42
-0.15011315396532871
10
195.1896673191896
20
28.164249000000041
10
195.1896673191896
20
26.664249000000027
10
204.33258738506666
20
26.664249000000055
42
-0.41421356237309503
10
217.33258738506666
20
13.664249000000055
10
217.33258738506666
20
13.000000000000011
42
-0.41421356237309515
10
204.33258738506666
20
6.6613381477509392e-15
10
0
20
6.6613381477509392e-15
42
-0.41421356237309503
10
-13
20
13.000000000000007
0
CIRCLE
5
101
100
AcDbEntity
8
INTERIOR_PROFILES
100
AcDbCircle
10
3.5518975270304187
20
10.122277431285767
30
0
40
3.3500000000000001
210
0
220
0
230
-1
0
CIRCLE
5
102
100
AcDbEntity
8
INTERIOR_PROFILES
100
AcDbCircle
10
-207.8844849120967
20
10.122277431285802
30
0
40
3.3500000000000085
210
0
220
0
230
-1
0
LINE
5
103
100
AcDbEntity
8
BEND
100
AcDbLine
10
6.6964600329387869
20
26.664248999999991
30
3.0103874827459594e-14
11
6.6964600329387869
21
0
31
2.5662982728958968e-14
0
LINE
5
104
100
AcDbEntity
8
BEND
100
AcDbLine
10
197.63612735212786
20
3.5527136788005009e-14
30
5.0859496551542734e-13
11
197.63612735212786
21
26.664249000000027
31
5.0415407341692672e-13
0
LINE
5
105
100
AcDbEntity
8
BEND
100
AcDbLine
10
182.27276730728065
20
180.23268318511001
30
4.4778207515690408e-13
11
156.54032798431314
21
180.23268318511001
31
3.844073059817378e-13
0
LINE
5
106
100
AcDbEntity
8
BEND
100
AcDbLine
10
47.792259400753508
20
180.23268318510998
30
1.2118074711290926e-13
11
22.059820077785904
21
180.23268318510998
31
5.7805977937742795e-14
0
LINE
5
107
100
AcDbEntity
8
BEND_EXTENT
100
AcDbLine
10
22.059820077785904
20
181.92914321804832
30
4.445680534905657e-14
11
47.792259400753508
21
181.92914321804832
31
1.0810913028037934e-13
0
LINE
5
108
100
AcDbEntity
8
BEND_EXTENT
100
AcDbLine
10
8.3929200658771173
20
26.664249000000009
30
2.9914278559029911e-14
11
8.3929200658771173
21
0
31
2.9914278559029911e-14
0
LINE
5
109
100
AcDbEntity
8
BEND_EXTENT
100
AcDbLine
10
195.93966731918954
20
3.5527136788005009e-14
30
4.9102099338985456e-13
11
195.93966731918954
21
26.664249000000027
31
4.8213920919285331e-13
0
LINE
5
110
100
AcDbEntity
8
BEND_EXTENT
100
AcDbLine
10
182.27276730728065
20
178.53622315217166
30
9.1862478615679633e-13
11
156.54032798431314
21
178.53622315217166
31
8.5413979395700489e-13
0
LINE
5
111
100
AcDbEntity
8
BEND_EXTENT
100
AcDbLine
10
47.792259400753508
20
178.53622315217166
30
5.8161925028300863e-13
11
22.059820077785904
21
178.53622315217166
31
5.1713425808321699e-13
0
LINE
5
112
100
AcDbEntity
8
BEND_EXTENT
100
AcDbLine
10
156.54032798431314
20
181.92914321804832
30
3.7840922790512526e-13
11
182.27276730728065
21
181.92914321804832
31
4.4233910859260412e-13
0
LINE
5
113
100
AcDbEntity
8
BEND_EXTENT
100
AcDbLine
10
199.3325873850662
20
26.664249000000027
30
5.1728715344399897e-13
11
199.3325873850662
21
3.5527136788005009e-14
31
5.1728715344399897e-13
0
LINE
5
114
100
AcDbEntity
8
BEND_EXTENT
100
AcDbLine
10
5.0000000000004441
20
0
30
1.2529902701886709e-14
11
5.0000000000004441
21
26.664248999999991
31
1.2529902701886709e-14
0
ENDSEC
0
SECTION
2
OBJECTS
0
DICTIONARY
5
C
100
AcDbDictionary
3
ACAD_GROUP
350
D
3
ACAD_MLINESTYLE
350
17
0
DICTIONARY
5
D
100
AcDbDictionary
0
DICTIONARY
5
1A
330
C
100
AcDbDictionary
0
DICTIONARY
5
17
100
AcDbDictionary
0
ENDSEC
0
EOF
