0
SECTION
2
HEADER
9
$INSUNITS
70
4
9
$ACADVER
1
AC1014
9
$HANDSEED
5
FFFF
0
ENDSEC
0
SECTION
2
TABLES
0
TABLE
2
VPORT
5
8
100
AcDbSymbolTable
0
ENDTAB
0
TABLE
2
LTYPE
5
5
100
AcDbSymbolTable
0
LTYPE
5
14
100
AcDbSymbolTableRecord
100
AcDbLinetypeTableRecord
2
BYBLOCK
70
0
0
LTYPE
5
15
100
AcDbSymbolTableRecord
100
AcDbLinetypeTableRecord
2
BYLAYER
70
0
0
ENDTAB
0
TABLE
2
LAYER
5
2
100
AcDbSymbolTable
70
2
0
LAYER
5
50
100
AcDbSymbolTableRecord
100
AcDbLayerTableRecord
2
0
70
0
6
CONTINUOUS
0
ENDTAB
0
TABLE
2
STYLE
5
3
100
AcDbSymbolTable
70
1
0
STYLE
5
11
100
AcDbSymbolTableRecord
100
AcDbTextStyleTableRecord
2
STANDARD
70
0
0
ENDTAB
0
TABLE
2
VIEW
5
6
100
AcDbSymbolTable
70
0
0
ENDTAB
0
TABLE
2
UCS
5
7
100
AcDbSymbolTable
70
0
0
ENDTAB
0
TABLE
2
APPID
5
9
100
AcDbSymbolTable
70
2
0
APPID
5
12
100
AcDbSymbolTableRecord
100
AcDbRegAppTableRecord
2
ACAD
70
0
0
ENDTAB
0
TABLE
2
DIMSTYLE
5
A
100
AcDbSymbolTable
70
1
0
ENDTAB
0
TABLE
2
BLOCK_RECORD
5
1
100
AcDbSymbolTable
70
1
0
BLOCK_RECORD
5
1F
100
AcDbSymbolTableRecord
100
AcDbBlockTableRecord
2
*MODEL_SPACE
0
BLOCK_RECORD
5
1B
100
AcDbSymbolTableRecord
100
AcDbBlockTableRecord
2
*PAPER_SPACE
0
ENDTAB
0
ENDSEC
0
SECTION
2
BLOCKS
0
BLOCK
5
20
100
AcDbEntity
100
AcDbBlockBegin
2
*MODEL_SPACE
0
ENDBLK
5
21
100
AcDbEntity
100
AcDbBlockEnd
0
BLOCK
5
1C
100
AcDbEntity
100
AcDbBlockBegin
2
*PAPER_SPACE
0
ENDBLK
5
1D
100
AcDbEntity
100
AcDbBlockEnd
0
ENDSEC
0
SECTION
2
ENTITIES
0
CIRCLE
5
100
100
AcDbEntity
8
0
100
AcDbCircle
10
60.075406288045329
20
62.344185921566094
30
0
40
1.6000000000000016
210
5.9267195146315702e-30
220
2.998222813284198e-30
230
1
0
CIRCLE
5
101
100
AcDbEntity
8
0
100
AcDbCircle
10
91.066948358517536
20
76.408849856489724
30
0
40
1.6000000000000016
210
5.9267195146315702e-30
220
2.998222813284198e-30
230
1
0
CIRCLE
5
102
100
AcDbEntity
8
0
100
AcDbCircle
10
96.897809782648196
20
21.287216660765459
30
0
40
1.6000000000000016
210
5.9267195146315702e-30
220
2.998222813284198e-30
230
1
0
LWPOLYLINE
5
103
100
AcDbEntity
8
0
100
AcDbPolyline
90
4
70
1
43
0.0
10
82.956949872286344
20
68.489180046927672
10
69.801253181283613
20
63.700898040368308
10
65.012971174724242
20
76.856594731371047
10
78.168667865726917
20
81.644876737930403
0
LWPOLYLINE
5
104
100
AcDbEntity
8
0
100
AcDbPolyline
90
4
70
1
43
0.0
10
80.497304609320253
20
45.158272706599014
10
67.341607918317521
20
40.369990700039644
10
62.553325911758137
20
53.525687391042354
10
75.709022602760868
20
58.31396939760171
0
LWPOLYLINE
5
105
100
AcDbEntity
8
0
100
AcDbPolyline
90
4
70
1
43
0.0
10
84.917480800741686
20
36.887163952355465
10
89.705762807301085
20
23.731467261352755
10
76.550066116298353
20
18.943185254793391
10
71.761784109738969
20
32.098881945796123
0
LWPOLYLINE
5
106
100
AcDbEntity
8
0
100
AcDbPolyline
90
4
70
1
43
0.0
10
89.414670726182962
20
50.13535527275554
10
84.626388719623606
20
63.291051963758285
10
97.782085410626365
20
68.079333970317663
10
102.57036741718572
20
54.92363727931491
0
LWPOLYLINE
5
107
100
AcDbEntity
8
0
100
AcDbPolyline
90
4
70
1
43
0.0
10
93.484712081995397
20
42.033069690846013
10
106.64040877299814
20
46.821351697405376
10
111.42869077955753
20
33.665655006402666
10
98.272994088554782
20
28.877372999843299
0
LWPOLYLINE
5
108
100
AcDbEntity
8
0
100
AcDbPolyline
90
10
70
1
43
0.0
10
109.27726376843906
20
22.934942165524177
42
0.40426230577822914
10
117.59495117621745
20
44.157555776361235
10
108.73663031960349
20
65.415539195190291
42
0.14369564849898742
10
102.9273879475559
20
72.595471796007459
10
83.313970402656537
20
86.161014563620199
42
0.56953079073110846
10
57.675344970154434
20
74.392317673253899
10
55.215699707188328
20
51.06141033292522
42
0.12843295048114073
10
56.457847527218618
20
42.86653287466018
10
65.666305725199436
20
21.4397274294139
42
0.42097236420683903
10
87.554338301940433
20
13.000755566391053
0
ENDSEC
0
SECTION
2
OBJECTS
0
DICTIONARY
5
C
100
AcDbDictionary
3
ACAD_GROUP
350
D
3
ACAD_MLINESTYLE
350
17
0
DICTIONARY
5
D
100
AcDbDictionary
0
DICTIONARY
5
1A
330
C
100
AcDbDictionary
0
DICTIONARY
5
17
100
AcDbDictionary
0
ENDSEC
0
EOF
