0
SECTION
2
HEADER
9
$INSUNITS
70
4
9
$ACADVER
1
AC1014
9
$HANDSEED
5
FFFF
0
ENDSEC
0
SECTION
2
TABLES
0
TABLE
2
VPORT
5
8
100
AcDbSymbolTable
0
ENDTAB
0
TABLE
2
LTYPE
5
5
100
AcDbSymbolTable
0
LTYPE
5
14
100
AcDbSymbolTableRecord
100
AcDbLinetypeTableRecord
2
BYBLOCK
70
0
0
LTYPE
5
15
100
AcDbSymbolTableRecord
100
AcDbLinetypeTableRecord
2
BYLAYER
70
0
0
ENDTAB
0
TABLE
2
LAYER
5
2
100
AcDbSymbolTable
70
2
0
LAYER
5
50
100
AcDbSymbolTableRecord
100
AcDbLayerTableRecord
2
0
70
0
6
CONTINUOUS
0
ENDTAB
0
TABLE
2
STYLE
5
3
100
AcDbSymbolTable
70
1
0
STYLE
5
11
100
AcDbSymbolTableRecord
100
AcDbTextStyleTableRecord
2
STANDARD
70
0
0
ENDTAB
0
TABLE
2
VIEW
5
6
100
AcDbSymbolTable
70
0
0
ENDTAB
0
TABLE
2
UCS
5
7
100
AcDbSymbolTable
70
0
0
ENDTAB
0
TABLE
2
APPID
5
9
100
AcDbSymbolTable
70
2
0
APPID
5
12
100
AcDbSymbolTableRecord
100
AcDbRegAppTableRecord
2
ACAD
70
0
0
ENDTAB
0
TABLE
2
DIMSTYLE
5
A
100
AcDbSymbolTable
70
1
0
ENDTAB
0
TABLE
2
BLOCK_RECORD
5
1
100
AcDbSymbolTable
70
1
0
BLOCK_RECORD
5
1F
100
AcDbSymbolTableRecord
100
AcDbBlockTableRecord
2
*MODEL_SPACE
0
BLOCK_RECORD
5
1B
100
AcDbSymbolTableRecord
100
AcDbBlockTableRecord
2
*PAPER_SPACE
0
ENDTAB
0
ENDSEC
0
SECTION
2
BLOCKS
0
BLOCK
5
20
100
AcDbEntity
100
AcDbBlockBegin
2
*MODEL_SPACE
0
ENDBLK
5
21
100
AcDbEntity
100
AcDbBlockEnd
0
BLOCK
5
1C
100
AcDbEntity
100
AcDbBlockBegin
2
*PAPER_SPACE
0
ENDBLK
5
1D
100
AcDbEntity
100
AcDbBlockEnd
0
ENDSEC
0
SECTION
2
ENTITIES
0
LWPOLYLINE
5
100
100
AcDbEntity
8
0
100
AcDbPolyline
90
4
70
1
43
0.0
10
123.61819686035004
20
-46.710212070567287
10
117.70154119598031
20
-59.398521089080404
10
105.01323217746722
20
-53.481865424710655
10
110.9298878418369
20
-40.793556406197595
0
LWPOLYLINE
5
101
100
AcDbEntity
8
0
100
AcDbPolyline
90
4
70
1
43
0.0
10
102.20651186044721
20
-58.724965781640122
10
96.289856196077452
20
-71.413274800153275
10
83.601547177564314
20
-65.496619135783561
10
89.518202841934084
20
-52.808310117270381
0
LWPOLYLINE
5
102
100
AcDbEntity
8
0
100
AcDbPolyline
90
4
70
1
43
0.0
10
39.411708513820741
20
-30.43545993258304
10
52.100017532333879
20
-36.3521155969528
10
46.183361867964138
20
-49.040424615465895
10
33.495052849451
20
-43.123768951096167
0
CIRCLE
5
103
100
AcDbEntity
8
0
100
AcDbCircle
10
61.790237586515708
20
1.3365589465160823
30
0
40
1.6000000000000016
210
4.9303806576313238e-31
220
4.2764235361474461e-46
230
1
0
CIRCLE
5
104
100
AcDbEntity
8
0
100
AcDbCircle
10
46.808888059893945
20
-60.920767951554637
30
0
40
1.6000000000000016
210
4.9303806576313238e-31
220
4.2764235361474446e-46
230
1
0
CIRCLE
5
105
100
AcDbEntity
8
0
100
AcDbCircle
10
104.76611755686464
20
-8.4543065160227275
30
0
40
1.6000000000000016
210
4.9303806576313238e-31
220
4.2764235361474446e-46
230
1
0
CIRCLE
5
106
100
AcDbEntity
8
0
100
AcDbCircle
10
119.23461413237563
20
-68.8924081136295
30
0
40
1.6000000000000016
210
4.9303806576313238e-31
220
4.2764235361474446e-46
230
1
0
LWPOLYLINE
5
107
100
AcDbEntity
8
0
100
AcDbPolyline
90
4
70
1
43
0.0
10
48.752865017021492
20
-20.377917674306964
10
36.064555998508375
20
-14.461262009937197
10
41.981211662878138
20
-1.7729529914241371
10
54.669520681391255
20
-7.689608655793883
0
LWPOLYLINE
5
108
100
AcDbEntity
8
0
100
AcDbPolyline
90
4
70
1
43
0.0
10
91.72420608449913
20
-48.14502766736183
10
79.035897065986063
20
-42.228372002992103
10
84.952552730355819
20
-29.540062984479007
10
97.6408617488689
20
-35.456718648848749
0
LWPOLYLINE
5
109
100
AcDbEntity
8
0
100
AcDbPolyline
90
4
70
1
43
0.0
10
68.252229311357809
20
-40.306622704941333
10
55.563920292844657
20
-34.389967040571534
10
61.480575957214413
20
-21.701658022058432
10
74.168884975727536
20
-27.618313686428202
0
LWPOLYLINE
5
110
100
AcDbEntity
8
0
100
AcDbPolyline
90
4
70
1
43
0.0
10
108.59427325185385
20
-16.948896439596815
10
121.28258227036702
20
-22.865552103966582
10
115.36592660599729
20
-35.553861122479674
10
102.67761758748415
20
-29.637205458109932
0
LWPOLYLINE
5
111
100
AcDbEntity
8
0
100
AcDbPolyline
90
4
70
1
43
0.0
10
72.564759988343056
20
-64.554147401969857
10
59.876450969829946
20
-58.637491737600094
10
65.793106634199717
20
-45.949182719086998
10
78.48141565271284
20
-51.865838383456726
0
LWPOLYLINE
5
112
100
AcDbEntity
8
0
100
AcDbPolyline
90
12
70
1
43
0.0
10
25.777483061910942
20
-7.0443903059948347
10
20.03316033424322
20
-34.959912672634736
42
0.32883078222272788
10
29.982161451161137
20
-56.514077155426946
10
59.538379150150497
20
-72.774784516449884
42
0.089385808973123579
10
66.261934870755027
20
-75.037799602121538
10
97.882679278389048
20
-79.699531883944417
42
0.14321277498683574
10
109.00252583938483
20
-78.153827236198325
10
132.95291287657068
20
-67.383171695946686
42
0.43970441489540868
10
142.21616465098282
20
-39.399264267786265
10
129.44619982381701
20
-16.507901246724785
42
0.21260579893398557
10
116.42271259051742
20
-6.7510405086117427
10
49.80965100154166
20
8.4249029395609742
42
0.42039446673496728
0
ENDSEC
0
SECTION
2
OBJECTS
0
DICTIONARY
5
C
100
AcDbDictionary
3
ACAD_GROUP
350
D
3
ACAD_MLINESTYLE
350
17
0
DICTIONARY
5
D
100
AcDbDictionary
0
DICTIONARY
5
1A
330
C
100
AcDbDictionary
0
DICTIONARY
5
17
100
AcDbDictionary
0
ENDSEC
0
EOF
