0
SECTION
2
HEADER
9
$INSUNITS
70
4
9
$ACADVER
1
AC1014
9
$HANDSEED
5
FFFF
0
ENDSEC
0
SECTION
2
TABLES
0
TABLE
2
VPORT
5
8
100
AcDbSymbolTable
0
ENDTAB
0
TABLE
2
LTYPE
5
5
100
AcDbSymbolTable
0
LTYPE
5
14
100
AcDbSymbolTableRecord
100
AcDbLinetypeTableRecord
2
BYBLOCK
70
0
0
LTYPE
5
15
100
AcDbSymbolTableRecord
100
AcDbLinetypeTableRecord
2
BYLAYER
70
0
0
ENDTAB
0
TABLE
2
LAYER
5
2
100
AcDbSymbolTable
70
2
0
LAYER
5
50
100
AcDbSymbolTableRecord
100
AcDbLayerTableRecord
2
0
70
0
6
CONTINUOUS
0
ENDTAB
0
TABLE
2
STYLE
5
3
100
AcDbSymbolTable
70
1
0
STYLE
5
11
100
AcDbSymbolTableRecord
100
AcDbTextStyleTableRecord
2
STANDARD
70
0
0
ENDTAB
0
TABLE
2
VIEW
5
6
100
AcDbSymbolTable
70
0
0
ENDTAB
0
TABLE
2
UCS
5
7
100
AcDbSymbolTable
70
0
0
ENDTAB
0
TABLE
2
APPID
5
9
100
AcDbSymbolTable
70
2
0
APPID
5
12
100
AcDbSymbolTableRecord
100
AcDbRegAppTableRecord
2
ACAD
70
0
0
ENDTAB
0
TABLE
2
DIMSTYLE
5
A
100
AcDbSymbolTable
70
1
0
ENDTAB
0
TABLE
2
BLOCK_RECORD
5
1
100
AcDbSymbolTable
70
1
0
BLOCK_RECORD
5
1F
100
AcDbSymbolTableRecord
100
AcDbBlockTableRecord
2
*MODEL_SPACE
0
BLOCK_RECORD
5
1B
100
AcDbSymbolTableRecord
100
AcDbBlockTableRecord
2
*PAPER_SPACE
0
ENDTAB
0
ENDSEC
0
SECTION
2
BLOCKS
0
BLOCK
5
20
100
AcDbEntity
100
AcDbBlockBegin
2
*MODEL_SPACE
0
ENDBLK
5
21
100
AcDbEntity
100
AcDbBlockEnd
0
BLOCK
5
1C
100
AcDbEntity
100
AcDbBlockBegin
2
*PAPER_SPACE
0
ENDBLK
5
1D
100
AcDbEntity
100
AcDbBlockEnd
0
ENDSEC
0
SECTION
2
ENTITIES
0
CIRCLE
5
100
100
AcDbEntity
8
0
100
AcDbCircle
10
-139.35109178407689
20
-5.8729496237268233
30
0
40
1.6000000000000014
210
-0
220
0
230
1
0
CIRCLE
5
101
100
AcDbEntity
8
0
100
AcDbCircle
10
-31.654051041030684
20
-30.431116686517523
30
0
40
1.6000000000000014
210
0
220
-0
230
1
0
CIRCLE
5
102
100
AcDbEntity
8
0
100
AcDbCircle
10
-97.488242441968964
20
39.791446588496335
30
0
40
1.6000000000000014
210
0
220
-0
230
1
0
CIRCLE
5
103
100
AcDbEntity
8
0
100
AcDbCircle
10
-95.889277601156095
20
-50.450582513477904
30
0
40
1.6000000000000014
210
0
220
-0
230
1
0
LWPOLYLINE
5
104
100
AcDbEntity
8
0
100
AcDbPolyline
90
4
70
1
43
0.0
10
-42.536226933943475
20
-4.2559993720943927
10
-29.013265365896505
20
-0.63253274065913356
10
-25.38979873446123
20
-14.155494308706016
10
-38.912760302508175
20
-17.778960940141278
0
LWPOLYLINE
5
105
100
AcDbEntity
8
0
100
AcDbPolyline
90
4
70
1
43
0.0
10
-107.75880050489511
20
26.483832668030992
10
-121.28176207294204
20
22.860366036595714
10
-124.90522870437731
20
36.383327604642602
10
-111.38226713633034
20
40.006794236077887
0
LWPOLYLINE
5
106
100
AcDbEntity
8
0
100
AcDbPolyline
90
4
70
1
43
0.0
10
-129.02707609705874
20
37.11298423918344
10
-142.55003766510563
20
33.489517607748162
10
-146.17350429654093
20
47.012479175795065
10
-132.650542728494
20
50.635945807230328
0
LWPOLYLINE
5
107
100
AcDbEntity
8
0
100
AcDbPolyline
90
4
70
1
43
0.0
10
-113.21247694489914
20
-2.1236119556015591
10
-126.73543851294588
20
-5.7470785870367962
10
-130.35890514438111
20
7.7758829810098806
10
-116.83594357633437
20
11.399349612445116
0
LWPOLYLINE
5
108
100
AcDbEntity
8
0
100
AcDbPolyline
90
4
70
1
43
0.0
10
-85.706329332749988
20
-37.996235292597873
10
-72.18336776470305
20
-34.372768661162596
10
-68.559901133267715
20
-47.895730229209462
10
-82.082862701314653
20
-51.51919686064474
0
LWPOLYLINE
5
109
100
AcDbEntity
8
0
100
AcDbPolyline
90
4
70
1
43
0.0
10
-61.573632820408655
20
-25.905888419876657
10
-48.050671252361674
20
-22.282421788441358
10
-44.427204620926389
20
-35.805383356488264
10
-57.950166188973363
20
-39.428849987923527
0
LWPOLYLINE
5
110
100
AcDbEntity
8
0
100
AcDbPolyline
90
4
70
1
43
0.0
10
-104.12213736087324
20
-39.090562607955512
10
-107.74560399230856
20
-25.567601039908638
10
-94.222642424261537
20
-21.944134408473353
10
-90.599175792826244
20
-35.467095976520248
0
LWPOLYLINE
5
111
100
AcDbEntity
8
0
100
AcDbPolyline
90
4
70
1
43
0.0
10
-138.10421916849768
20
22.02850118359736
10
-134.48075253706244
20
8.5055396155507061
10
-148.00371410510917
20
4.8820729841154638
10
-151.62718073654443
20
18.405034552162135
0
LWPOLYLINE
5
112
100
AcDbEntity
8
0
100
AcDbPolyline
90
13
70
1
43
0.0
10
-163.2740780337306
20
18.034170478714149
42
0.38768487022757814
10
-149.7321635346145
20
-5.2807464789631373
10
-130.94054622815915
20
-14.955558067177222
10
-116.58402289607295
20
-40.357827975762568
42
0.13656644508209945
10
-108.99654867144707
20
-47.938195338588713
10
-86.957274011888529
20
-60.366829591277934
42
0.24946992661883768
10
-68.174620489531691
20
-60.827408093664246
10
-44.041923977190358
20
-48.737061220943048
42
0.096567533193300137
10
-37.981161912535157
20
-44.062525186248429
10
-18.943756026069963
20
-22.41263613846618
42
0.493172214998359
10
-25.094952186336243
20
8.7207001122384789
10
-128.73222954893373
20
59.989178660127955
42
0.48821466803780683
10
-157.14624638972316
20
46.300136161199326
0
ENDSEC
0
SECTION
2
OBJECTS
0
DICTIONARY
5
C
100
AcDbDictionary
3
ACAD_GROUP
350
D
3
ACAD_MLINESTYLE
350
17
0
DICTIONARY
5
D
100
AcDbDictionary
0
DICTIONARY
5
1A
330
C
100
AcDbDictionary
0
DICTIONARY
5
17
100
AcDbDictionary
0
ENDSEC
0
EOF
